<svg width="1600" height="760" viewBox="0 0 1600 760" fill="none" xmlns="http://www.w3.org/2000/svg">
  <defs>
    <linearGradient id="contextWaveGradient" x1="380" y1="330" x2="1510" y2="500" gradientUnits="userSpaceOnUse">
      <stop stop-color="#DCECF0" stop-opacity="0.18"/>
      <stop offset="0.26" stop-color="#90C7C7" stop-opacity="0.52"/>
      <stop offset="0.53" stop-color="#A5C8DE" stop-opacity="0.48"/>
      <stop offset="0.74" stop-color="#B8B5DF" stop-opacity="0.44"/>
      <stop offset="1" stop-color="#D9EBEE" stop-opacity="0.12"/>
    </linearGradient>
    <linearGradient id="contextWaveGradient2" x1="280" y1="520" x2="1460" y2="420" gradientUnits="userSpaceOnUse">
      <stop stop-color="#D8E8ED" stop-opacity="0.04"/>
      <stop offset="0.38" stop-color="#6FB2B0" stop-opacity="0.28"/>
      <stop offset="0.68" stop-color="#9B9AD0" stop-opacity="0.24"/>
      <stop offset="1" stop-color="#E0EDF0" stop-opacity="0"/>
    </linearGradient>
    <linearGradient id="contextPeach" x1="760" y1="560" x2="1500" y2="400" gradientUnits="userSpaceOnUse">
      <stop stop-color="#E9B5A0" stop-opacity="0"/>
      <stop offset="0.55" stop-color="#E6A486" stop-opacity="0.9"/>
      <stop offset="1" stop-color="#F3C9B8" stop-opacity="0.15"/>
    </linearGradient>
    <filter id="contextBlur" x="-20%" y="-40%" width="140%" height="180%">
      <feGaussianBlur stdDeviation="28"/>
    </filter>
    <filter id="contextGlow" x="-50%" y="-50%" width="200%" height="200%">
      <feGaussianBlur stdDeviation="9"/>
    </filter>
  </defs>

  <g opacity="0.62" filter="url(#contextBlur)">
    <path d="M310 520C490 440 560 478 695 415C842 346 911 422 1038 369C1189 306 1265 337 1485 255L1530 610C1324 568 1246 592 1106 566C958 538 881 603 728 566C563 525 467 604 310 610V520Z" fill="url(#contextWaveGradient)"/>
    <ellipse cx="1050" cy="486" rx="370" ry="130" fill="#C9D9F0" fill-opacity="0.22"/>
  </g>

  <g opacity="0.9">
    <path d="M120 566C326 488 430 594 582 506C730 420 790 468 934 397C1086 322 1158 439 1298 334C1400 258 1470 272 1564 300" stroke="url(#contextWaveGradient)" stroke-width="5" stroke-linecap="round"/>
    <path d="M104 586C312 518 426 612 590 542C730 482 816 500 945 444C1084 384 1188 480 1324 392C1432 323 1492 336 1580 357" stroke="#82BCBE" stroke-opacity="0.26" stroke-width="2"/>
    <path d="M84 610C292 556 425 626 592 576C744 530 824 544 960 500C1112 451 1190 528 1336 452C1440 399 1502 407 1580 425" stroke="#9B9BD2" stroke-opacity="0.28" stroke-width="2"/>
    <path d="M76 540C302 446 398 550 560 470C720 392 790 432 916 364C1080 274 1158 395 1288 298C1400 215 1498 246 1586 274" stroke="#8ABFCB" stroke-opacity="0.34" stroke-width="1.5"/>
    <path d="M108 628C310 586 432 638 598 606C768 572 846 590 984 548C1126 505 1226 566 1362 510C1460 470 1518 480 1582 489" stroke="#C2C4E8" stroke-opacity="0.4" stroke-width="1.5"/>
    <path d="M338 548C505 487 605 529 735 487C874 441 948 462 1072 429C1193 396 1308 470 1428 409C1490 378 1534 383 1580 396" stroke="#5EA7A6" stroke-opacity="0.34" stroke-width="1.4" stroke-dasharray="5 9"/>
    <path d="M566 612C744 582 856 600 994 562C1120 528 1202 546 1308 505C1412 465 1477 469 1574 482" stroke="#6F99CF" stroke-opacity="0.34" stroke-width="1.4" stroke-dasharray="4 8"/>
    <path d="M770 584C938 589 1040 576 1152 532C1260 490 1364 518 1464 466C1515 440 1548 442 1590 448" stroke="url(#contextPeach)" stroke-width="2.2" stroke-linecap="round"/>
  </g>

  <g opacity="0.36">
    <path d="M370 576C520 500 618 531 724 471C836 408 936 430 1038 389C1154 342 1260 395 1360 338C1440 291 1516 301 1590 318" stroke="#72B4BC"/>
    <path d="M352 598C506 534 616 559 736 509C856 459 940 472 1050 431C1165 388 1260 440 1372 382C1450 341 1520 350 1588 369" stroke="#89BFD0"/>
    <path d="M420 622C584 572 690 590 820 548C942 509 1030 525 1138 486C1252 445 1350 488 1450 444C1508 418 1544 420 1586 430" stroke="#B3B1DE"/>
  </g>

  <g class="context-observation-node" stroke="#7BAEB6" stroke-opacity="0.28" stroke-width="1">
    <path d="M540 560V362"/><path d="M652 535V405"/><path d="M772 500V330"/><path d="M906 461V384"/><path d="M1018 430V280"/><path d="M1160 413V332"/><path d="M1294 360V218"/><path d="M1408 322V188"/><path d="M1512 356V252"/>
  </g>
  <g class="context-observation-node">
    <circle cx="540" cy="560" r="6" fill="#6AA8A9"/><circle cx="540" cy="362" r="4" fill="#B6D5DB"/>
    <circle cx="652" cy="535" r="5" fill="#A9B7DC"/><circle cx="652" cy="405" r="4" fill="#B9D7DC"/>
    <circle cx="772" cy="500" r="6" fill="#68AAA8"/><circle cx="772" cy="330" r="5" fill="#A4C9D3"/>
    <circle cx="906" cy="461" r="5" fill="#8DB7CD"/><circle cx="906" cy="384" r="4" fill="#C0D5DE"/>
    <circle cx="1018" cy="430" r="5" fill="#8F92C8"/><circle cx="1018" cy="280" r="4" fill="#A8CDD3"/>
    <circle cx="1160" cy="413" r="5" fill="#78B1B1"/><circle cx="1160" cy="332" r="4" fill="#B7D8DC"/>
    <circle cx="1294" cy="360" r="6" fill="#79A9CA"/><circle cx="1294" cy="218" r="5" fill="#6DAFB1"/>
    <circle cx="1408" cy="322" r="6" fill="#DEA080"/><circle cx="1408" cy="188" r="6" fill="#67AEB0"/>
    <circle cx="1512" cy="356" r="5" fill="#9596CB"/><circle cx="1512" cy="252" r="4" fill="#A7CDD4"/>
  </g>

  <g opacity="0.32">
    <circle cx="602" cy="490" r="2.5" fill="#7FB7BE"/><circle cx="626" cy="475" r="2" fill="#7FB7BE"/><circle cx="690" cy="512" r="2" fill="#87B8C6"/><circle cx="716" cy="462" r="2.5" fill="#87B8C6"/><circle cx="842" cy="434" r="2" fill="#7DB2BE"/><circle cx="868" cy="454" r="2" fill="#97A7D3"/><circle cx="938" cy="405" r="2.5" fill="#8FA4D2"/><circle cx="970" cy="447" r="2" fill="#79AFB7"/><circle cx="1092" cy="389" r="2" fill="#74AEB4"/><circle cx="1120" cy="425" r="2.5" fill="#9F9DD1"/><circle cx="1216" cy="355" r="2" fill="#83B6C5"/><circle cx="1250" cy="401" r="2" fill="#86B7C7"/><circle cx="1348" cy="324" r="2.5" fill="#74AEB3"/><circle cx="1384" cy="370" r="2" fill="#A6A2D4"/><circle cx="1460" cy="302" r="2.5" fill="#76ACB6"/><circle cx="1490" cy="414" r="2" fill="#DEA080"/>
  </g>
</svg>
